<?xml version="1.0" encoding="utf-8"?>
<!-- Generator: Adobe Illustrator 26.5.0, SVG Export Plug-In . SVG Version: 6.00 Build 0)  -->
<svg version="1.1" id="Layer_1" xmlns="http://www.w3.org/2000/svg" xmlns:xlink="http://www.w3.org/1999/xlink" x="0px" y="0px"
	 viewBox="0 0 151 35" width="151" height="35" style="enable-background:new 0 0 151 35;" xml:space="preserve">
<style type="text/css">
	.st0{fill:#CC0000;}
</style>
<g>
	<path class="st0" d="M25,30.1c-7,0-12.6-5.7-12.6-12.6c0-7,5.7-12.6,12.6-12.6c2.5,0,4.8,0.7,6.7,1.9L25,17.5l12.6-7.3
		c-1.4-2.2-3.3-4.1-5.7-5.5c-3-1.8-7.2-2.9-11.9-2.9c-6.6,0-12.5,2.4-15.7,6c-2.4,2.7-3.8,6-3.8,9.7s1.4,7,3.8,9.7
		c3.3,3.6,9,6,15.5,6s12.3-2.4,15.5-6c0.2-0.2,0.3-0.4,0.5-0.6l-0.5-1.8C33.1,28,29.3,30.1,25,30.1z"/>
	<path class="st0" d="M66.8,32.4l-5.3-19.7c-0.9-3.2-3.8-5.5-7.2-5.5c-0.9,0-1.8,0.2-2.6,0.5l-11.4,4.1H52l2,7.5
		c-1.9-1.7-4.5-2.7-7.2-2.7c-5.5,0-10,3.7-10,8.2s4.5,8.2,10,8.2c4,0,7.5-1.9,9.6-4.9l1.2,4.3H66.8z M50.7,29.3
		c-2.5,0-4.6-2.1-4.6-4.6s2.1-4.6,4.6-4.6s4.6,2.1,4.6,4.6C55.3,27.3,53.2,29.3,50.7,29.3z"/>
	<path class="st0" d="M88.4,7.1c-0.7,0-1.4,0.2-1.9,0.4l-7.3,3.4c-0.4-2.2-2.2-3.8-4.5-3.8c-0.7,0-1.4,0.2-1.9,0.4l-8.9,4.2H70v20.7
		h9.2V14c0-1.3,1-2.3,2.3-2.3s2.3,1,2.3,2.3v18.4H93V11.7C93,9.2,90.9,7.1,88.4,7.1z"/>
	<path class="st0" d="M146,7.1c-0.7,0-1.4,0.2-1.9,0.4l-7.3,3.4c-0.4-2.2-2.3-3.8-4.5-3.8c-0.7,0-1.4,0.2-1.9,0.4l-8.9,4.2h6.3v20.7
		h9.2V14c0-1.3,1-2.3,2.3-2.3s2.3,1,2.3,2.3v18.4h9.2V11.7C150.6,9.2,148.5,7.1,146,7.1z"/>
	<path class="st0" d="M122.8,20.1c0,7.2-5.8,13-13,13s-13-5.8-13-13s5.8-13,13-13C117,7.1,122.8,12.9,122.8,20.1z M110.4,11.1
		c-0.4-1.5-2-2.4-3.5-2s-2.4,2-2,3.5l4.5,16.6c0.4,1.5,2,2.4,3.5,2s2.4-2,2-3.5L110.4,11.1z"/>
</g>
</svg>
